# xmcd CD database file
#
# Track frame offsets:
#	150
#	26095
#	44550
#
# Disc length: 873 seconds
#
# Revision: 2
# Processed by: cddbd v1.5.1PL0 Copyright (c) Steve Scherf et al.
# Submitted via: CDex 1.51
#
DISCID=22036703
DTITLE=清春 - HORIZON
DYEAR=2005
DGENRE=Rock
TTITLE0=HORIZON
TTITLE1=BLACK TOYS ILLUSION
TTITLE2=Limited.
EXTD=YEAR: 2005/03/16
EXTT0=
EXTT1=
EXTT2=
PLAYORDER=
